<svg width="844" height="142" viewBox="0 0 844 142" fill="none" xmlns="http://www.w3.org/2000/svg">
<path d="M258.642 33.8402C253.577 30.6739 248.578 28.1672 243.646 26.3202C238.714 24.4732 234.049 23.1539 229.65 22.3623C225.252 21.5707 221.253 21.1749 217.654 21.1749C210.722 21.1749 205.19 22.4942 201.058 25.1328C196.926 27.7715 194.86 31.5974 194.86 36.6108C194.86 41.0965 196.193 44.7905 198.859 47.693C201.658 50.4636 205.257 52.7723 209.656 54.6194C214.188 56.3345 219.12 57.9836 224.452 59.5668C229.917 61.15 235.315 62.9311 240.647 64.91C245.979 66.7571 250.911 69.1978 255.443 72.2322C259.975 75.2666 263.574 79.1586 266.24 83.9081C268.906 88.5257 270.239 94.3965 270.239 101.521C270.239 109.7 267.973 116.824 263.441 122.893C258.909 128.83 252.644 133.447 244.646 136.746C236.782 140.044 227.717 141.693 217.454 141.693C210.122 141.693 202.991 140.77 196.059 138.923C189.128 136.944 182.596 134.305 176.464 131.007C170.466 127.709 165.068 123.883 160.269 119.529L170.466 100.333C175.265 104.687 180.33 108.381 185.662 111.415C191.127 114.45 196.593 116.759 202.058 118.342C207.656 119.925 212.922 120.717 217.854 120.717C226.118 120.717 232.516 119.133 237.048 115.967C241.714 112.801 244.046 108.381 244.046 102.708C244.046 98.0905 242.647 94.3967 239.847 91.6261C237.182 88.7237 233.583 86.3488 229.05 84.5018C224.652 82.6547 219.72 81.0056 214.255 79.5544C208.923 78.1031 203.524 76.454 198.059 74.607C192.727 72.628 187.795 70.1873 183.263 67.2848C178.864 64.3823 175.265 60.6222 172.465 56.0047C169.799 51.3871 168.467 45.5162 168.467 38.3919C168.467 30.608 170.599 23.8795 174.865 18.2065C179.13 12.4015 185.062 7.91585 192.66 4.74951C200.391 1.58317 209.323 0 219.453 0C228.517 0 237.315 1.31932 245.846 3.95794C254.377 6.59655 261.908 10.0268 268.44 14.2486L258.642 33.8402Z" fill="white"/>
<path d="M340.263 1.78107H364.456L425.639 140.308H400.446L351.659 25.3307L303.073 140.308H278.479L340.263 1.78107Z" fill="white"/>
<path d="M444.29 1.78107H467.483L548.461 111.613L542.462 113.592V1.78107H565.656V140.308H542.462L461.685 30.6739L467.883 28.6949V140.308H444.29V1.78107Z" fill="white"/>
<path d="M584.849 1.78107H610.242L653.43 115.769L697.018 1.78107H721.611L665.026 140.308H640.633L584.849 1.78107Z" fill="white"/>
<path d="M740.691 1.78107H840.663V21.7686H764.285V60.7542H832.666V80.5439H764.285V120.321H843.063V140.308H740.691V1.78107Z" fill="white"/>
<path fill-rule="evenodd" clip-rule="evenodd" d="M90.5056 1.97897C85.2807 0.923546 79.8385 0.395836 74.1791 0.395836C63.782 0.395836 54.0515 2.17688 44.9873 5.73901C36.0565 9.30113 28.1921 14.3145 21.394 20.7791C14.7292 27.1118 9.46403 34.5659 5.59844 43.1414C1.86615 51.7169 0 60.9521 0 70.847C0 80.7418 1.86615 90.0428 5.59844 98.7502C9.46403 107.326 14.7292 114.846 21.394 121.31C28.1921 127.775 36.0565 132.854 44.9873 136.548C54.0515 140.11 63.782 141.891 74.1791 141.891C84.5762 141.891 94.24 140.11 103.171 136.548C112.235 132.854 120.099 127.775 126.764 121.31C133.562 114.846 138.827 107.326 142.56 98.7502C146.425 90.0428 148.358 80.7418 148.358 70.847C148.358 60.9521 146.425 51.7829 142.56 43.3393C138.827 34.7638 133.562 27.2437 126.764 20.7791C121.959 16.1178 116.529 12.2111 110.476 9.05886L102.394 28.845C104.975 30.5906 107.366 32.5855 109.569 34.8297C114.101 39.4473 117.633 44.8565 120.166 51.0572C122.832 57.126 124.165 63.7227 124.165 70.847C124.165 77.9712 122.832 84.6338 120.166 90.8345C117.633 97.0353 114.101 102.51 109.569 107.26C105.037 111.877 99.7051 115.505 93.5735 118.144C87.5752 120.782 81.1771 122.102 74.379 122.102C67.5809 122.102 61.1162 120.782 54.9846 118.144C48.9862 115.505 43.6544 111.877 38.9891 107.26C34.3237 102.51 30.6581 97.0353 27.9922 90.8345C25.3262 84.6338 23.9932 77.9712 23.9932 70.847C23.9932 63.7227 25.2596 57.126 27.7922 51.0572C30.4581 44.8565 34.1238 39.4473 38.7891 34.8297C43.4545 30.2122 48.7863 26.65 54.7846 24.1433C60.9162 21.5047 67.4476 20.1854 74.379 20.1854C76.8433 20.1854 79.255 20.3588 81.6142 20.7055L88.775 1.6501L90.5056 1.97897Z" fill="white"/>
<circle cx="74.3328" cy="69.8221" r="19.0594" fill="white"/>
</svg>
