<svg xmlns="http://www.w3.org/2000/svg" viewBox="0 0 1920 300" preserveAspectRatio="xMidYMax slice">
  <defs>
    <path id="tree" d="M0 0l-15 40h8l-12 35h10l-15 45h34l-15-45h10l-12-35h8z"/>
  </defs>
  <g fill="#0a0a14">
    <use href="#tree" transform="translate(50 180) scale(1.2)"/>
    <use href="#tree" transform="translate(120 190) scale(0.9)"/>
    <use href="#tree" transform="translate(200 175) scale(1.4)"/>
    <use href="#tree" transform="translate(300 185) scale(1.1)"/>
    <use href="#tree" transform="translate(400 195) scale(0.8)"/>
    <use href="#tree" transform="translate(500 180) scale(1.3)"/>
    <use href="#tree" transform="translate(620 188) scale(1.0)"/>
    <use href="#tree" transform="translate(720 178) scale(1.5)"/>
    <use href="#tree" transform="translate(850 192) scale(0.85)"/>
    <use href="#tree" transform="translate(950 182) scale(1.2)"/>
    <use href="#tree" transform="translate(1080 175) scale(1.4)"/>
    <use href="#tree" transform="translate(1180 190) scale(0.95)"/>
    <use href="#tree" transform="translate(1300 185) scale(1.1)"/>
    <use href="#tree" transform="translate(1420 178) scale(1.35)"/>
    <use href="#tree" transform="translate(1550 188) scale(1.0)"/>
    <use href="#tree" transform="translate(1680 180) scale(1.25)"/>
    <use href="#tree" transform="translate(1800 192) scale(0.9)"/>
    <use href="#tree" transform="translate(1900 185) scale(1.15)"/>
  </g>
  <rect y="260" width="1920" height="40" fill="#0a0a14"/>
</svg>
