<svg xmlns="http://www.w3.org/2000/svg" viewBox="0 0 1920 1080" preserveAspectRatio="xMidYMid slice">
  <defs>
    <radialGradient id="star">
      <stop offset="0%" stop-color="#fff" stop-opacity="1"/>
      <stop offset="100%" stop-color="#fff" stop-opacity="0"/>
    </radialGradient>
  </defs>
  <g fill="url(#star)">
    <circle cx="100" cy="80" r="1.5"/><circle cx="250" cy="150" r="1"/><circle cx="400" cy="60" r="2"/>
    <circle cx="550" cy="200" r="1.2"/><circle cx="700" cy="100" r="1.8"/><circle cx="850" cy="180" r="1"/>
    <circle cx="1000" cy="50" r="1.5"/><circle cx="1150" cy="220" r="1.3"/><circle cx="1300" cy="90" r="2"/>
    <circle cx="1450" cy="160" r="1"/><circle cx="1600" cy="70" r="1.7"/><circle cx="1750" cy="200" r="1.2"/>
    <circle cx="1850" cy="120" r="1.5"/><circle cx="180" cy="300" r="1"/><circle cx="350" cy="280" r="1.8"/>
    <circle cx="520" cy="350" r="1.3"/><circle cx="680" cy="320" r="1"/><circle cx="820" cy="380" r="1.5"/>
    <circle cx="980" cy="290" r="2"/><circle cx="1120" cy="360" r="1.2"/><circle cx="1280" cy="310" r="1"/>
    <circle cx="1420" cy="370" r="1.7"/><circle cx="1580" cy="340" r="1.3"/><circle cx="1720" cy="300" r="1.5"/>
    <circle cx="60" cy="450" r="1.2"/><circle cx="220" cy="500" r="1.8"/><circle cx="380" cy="420" r="1"/>
    <circle cx="540" cy="480" r="1.5"/><circle cx="700" cy="440" r="1.3"/><circle cx="860" cy="520" r="2"/>
    <circle cx="1020" cy="460" r="1"/><circle cx="1180" cy="490" r="1.7"/><circle cx="1340" cy="430" r="1.2"/>
    <circle cx="1500" cy="510" r="1.5"/><circle cx="1660" cy="450" r="1"/><circle cx="1820" cy="480" r="1.8"/>
  </g>
  <g fill="#fff" opacity="0.5">
    <circle cx="150" cy="130" r="0.8"/><circle cx="300" cy="95" r="0.6"/><circle cx="480" cy="170" r="0.7"/>
    <circle cx="630" cy="140" r="0.5"/><circle cx="780" cy="80" r="0.9"/><circle cx="920" cy="190" r="0.6"/>
    <circle cx="1070" cy="110" r="0.8"/><circle cx="1230" cy="160" r="0.5"/><circle cx="1380" cy="130" r="0.7"/>
    <circle cx="1530" cy="95" r="0.9"/><circle cx="1680" cy="175" r="0.6"/><circle cx="1800" cy="140" r="0.8"/>
  </g>
</svg>
